# Blender 4.4.3
# www.blender.org
mtllib NinjaLight.mtl
o facelight
v 0.098958 -0.015585 -0.498371
v 0.123515 -0.016936 -0.516173
v 0.144087 -0.018777 -0.542899
v 0.142325 -0.038926 -0.540391
v 0.119114 -0.076991 -0.509261
v 0.097425 -0.077644 -0.491797
v 0.134528 -0.077351 -0.531495
v 0.098603 -0.033472 -0.495135
v 0.122731 -0.036104 -0.513976
v 0.121083 -0.056273 -0.511476
v 0.098041 -0.054800 -0.492614
v 0.139199 -0.058207 -0.537125
v 0.074089 -0.014439 -0.490182
v 0.023978 -0.017995 -0.514770
v 0.025251 -0.037140 -0.512579
v 0.004951 -0.040387 -0.538445
v 0.002532 -0.020286 -0.541083
v 0.049025 -0.016115 -0.497653
v 0.049852 -0.033991 -0.494435
v 0.074328 -0.032536 -0.486904
v 0.013838 -0.078633 -0.529761
v 0.029873 -0.077940 -0.507979
v 0.052063 -0.078126 -0.491146
v 0.074846 -0.077317 -0.484012
v 0.027401 -0.057269 -0.510130
v 0.050939 -0.055300 -0.491938
v 0.008602 -0.059595 -0.535249
v 0.074592 -0.054128 -0.484516
v 0.133612 -0.027668 -0.527802
v 0.111313 -0.025274 -0.504760
v 0.086469 -0.023476 -0.490919
v 0.109362 -0.066342 -0.500199
v 0.129009 -0.067122 -0.522033
v 0.086365 -0.043132 -0.487874
v 0.110515 -0.044826 -0.502081
v 0.131879 -0.047352 -0.525358
v 0.086214 -0.065788 -0.486410
v 0.013759 -0.028943 -0.526134
v 0.036699 -0.026067 -0.503688
v 0.061887 -0.023737 -0.490566
v 0.039653 -0.067083 -0.499198
v 0.019408 -0.068287 -0.520458
v 0.062496 -0.043385 -0.487531
v 0.037990 -0.045597 -0.501039
v 0.016025 -0.048584 -0.523693
v 0.063170 -0.066033 -0.486079
v 0.132915 -0.037518 -0.526654
v 0.143301 -0.028924 -0.541676
v 0.134138 -0.017811 -0.528876
v 0.123192 -0.026442 -0.515104
v 0.111541 -0.016246 -0.506110
v 0.098798 -0.024255 -0.496716
v 0.110999 -0.034676 -0.503415
v 0.086504 -0.014798 -0.492637
v 0.074206 -0.023211 -0.488493
v 0.086425 -0.032728 -0.489298
v 0.127346 -0.077067 -0.520078
v 0.108779 -0.077334 -0.499647
v 0.086133 -0.077467 -0.486274
v 0.120114 -0.066599 -0.510340
v 0.109941 -0.055466 -0.500946
v 0.097735 -0.066141 -0.492070
v 0.136976 -0.067778 -0.534502
v 0.130558 -0.057208 -0.523842
v 0.086292 -0.054285 -0.486845
v 0.098341 -0.043782 -0.493702
v 0.074459 -0.042968 -0.485512
v 0.121992 -0.046078 -0.512727
v 0.140970 -0.048638 -0.538981
v 0.074720 -0.065635 -0.484115
v 0.003659 -0.030411 -0.539779
v 0.014731 -0.038775 -0.524970
v 0.024544 -0.027491 -0.513701
v 0.012947 -0.019101 -0.527243
v 0.037251 -0.035460 -0.502356
v 0.049416 -0.024780 -0.496007
v 0.036241 -0.017046 -0.505028
v 0.062174 -0.032986 -0.488950
v 0.061618 -0.015062 -0.492279
v 0.021337 -0.078193 -0.518555
v 0.040485 -0.078060 -0.498666
v 0.063503 -0.077707 -0.485948
v 0.051502 -0.066632 -0.491406
v 0.038822 -0.056222 -0.499924
v 0.028622 -0.067572 -0.509025
v 0.017597 -0.058408 -0.522219
v 0.011101 -0.069116 -0.532693
v 0.050374 -0.044292 -0.493013
v 0.062835 -0.054534 -0.486508
v 0.026241 -0.047095 -0.511351
v 0.006575 -0.050067 -0.537050
vn 0.7196 0.0758 0.6902
vn 0.7970 0.0370 0.6028
vn 0.7907 0.0522 0.6100
vn 0.7093 0.0877 0.6994
vn 0.8192 0.0139 0.5733
vn 0.8141 0.0328 0.5798
vn 0.8096 0.0393 0.5857
vn 0.7872 0.0576 0.6140
vn 0.7034 0.0922 0.7048
vn 0.5901 0.1389 0.7953
vn 0.6051 0.1233 0.7865
vn 0.5770 0.1457 0.8037
vn 0.4620 0.1974 0.8646
vn 0.4728 0.1878 0.8609
vn 0.4851 0.1644 0.8589
vn 0.3029 0.2156 0.9283
vn 0.3067 0.1893 0.9328
vn 0.3028 0.2253 0.9260
vn 0.0115 0.2327 0.9725
vn 0.0116 0.2229 0.9748
vn 0.0120 0.1966 0.9804
vn 0.7256 0.0385 0.6870
vn 0.7363 0.0386 0.6755
vn 0.6224 0.0557 0.7807
vn 0.6121 0.0503 0.7892
vn 0.7353 0.0475 0.6760
vn 0.6226 0.0763 0.7788
vn 0.4991 0.0952 0.8613
vn 0.4996 0.0645 0.8638
vn 0.4932 0.0550 0.8682
vn 0.8422 -0.0175 0.5388
vn 0.8378 -0.0150 0.5458
vn 0.8148 0.0091 0.5797
vn 0.8118 0.0102 0.5839
vn 0.8328 -0.0148 0.5534
vn 0.8112 0.0120 0.5847
vn 0.0131 0.1139 0.9934
vn 0.3131 0.1090 0.9435
vn 0.3104 0.1531 0.9382
vn 0.0125 0.1597 0.9871
vn 0.4939 0.1330 0.8593
vn 0.7289 0.0610 0.6819
vn 0.6162 0.1021 0.7809
vn 0.8259 -0.0069 0.5637
vn 0.8045 0.0204 0.5936
vn 0.0137 0.0636 0.9979
vn 0.3120 0.0610 0.9481
vn 0.3143 0.0727 0.9465
vn 0.0135 0.0760 0.9970
vn -0.7928 0.0217 0.6091
vn -0.7974 0.0151 0.6032
vn -0.7737 0.0355 0.6326
vn -0.7703 0.0408 0.6363
vn -0.8025 -0.0038 0.5967
vn -0.7799 0.0201 0.6256
vn -0.7010 0.0607 0.7106
vn -0.6907 0.0729 0.7194
vn -0.6849 0.0775 0.7245
vn -0.5848 0.1107 0.8036
vn -0.5699 0.1265 0.8119
vn -0.4636 0.1543 0.8725
vn -0.4518 0.1780 0.8742
vn -0.4411 0.1878 0.8776
vn -0.5568 0.1336 0.8198
vn -0.2837 0.1830 0.9413
vn -0.2806 0.2094 0.9367
vn -0.2808 0.2191 0.9344
vn -0.7062 0.0233 0.7076
vn -0.5901 0.0375 0.8065
vn -0.6007 0.0427 0.7983
vn -0.7173 0.0232 0.6964
vn -0.4692 0.0448 0.8820
vn -0.4759 0.0541 0.8779
vn -0.4760 0.0849 0.8753
vn -0.6014 0.0633 0.7964
vn -0.7165 0.0321 0.6969
vn -0.8259 -0.0352 0.5628
vn -0.7947 -0.0068 0.6070
vn -0.7978 -0.0080 0.6029
vn -0.8212 -0.0327 0.5696
vn -0.7941 -0.0051 0.6077
vn -0.8160 -0.0323 0.5771
vn -0.4718 0.1227 0.8731
vn -0.2865 0.1468 0.9468
vn -0.2881 0.1026 0.9521
vn -0.5955 0.0892 0.7984
vn -0.7102 0.0457 0.7025
vn -0.7873 0.0035 0.6165
vn -0.8091 -0.0244 0.5872
vn -0.2885 0.0663 0.9552
vn -0.2859 0.0547 0.9567
vt 0.798760 0.661249
vt 0.885862 0.661249
vt 0.885862 0.823326
vt 0.798760 0.823326
vt 0.974586 0.661249
vt 0.974586 0.823326
vt 0.974586 0.987435
vt 0.885862 0.987435
vt 0.798760 0.987435
vt 0.714901 0.823326
vt 0.714901 0.661249
vt 0.714901 0.987435
vt 0.635828 0.987435
vt 0.635828 0.823326
vt 0.635828 0.661249
vt 0.563083 0.823326
vt 0.563083 0.661249
vt 0.563083 0.987435
vt 0.493501 0.987435
vt 0.493501 0.823326
vt 0.493501 0.661249
vt 0.798760 0.018572
vt 0.798760 0.182914
vt 0.714901 0.182914
vt 0.714901 0.018572
vt 0.798760 0.345165
vt 0.714901 0.345165
vt 0.635828 0.345165
vt 0.635828 0.182914
vt 0.635828 0.018572
vt 0.974586 0.018572
vt 0.974586 0.182914
vt 0.885862 0.182914
vt 0.885862 0.018572
vt 0.974586 0.345165
vt 0.885862 0.345165
vt 0.493501 0.345165
vt 0.563083 0.345165
vt 0.563083 0.503236
vt 0.493501 0.503236
vt 0.635828 0.503236
vt 0.798760 0.503236
vt 0.714901 0.503236
vt 0.974586 0.503236
vt 0.885862 0.503236
vt 0.493501 0.018572
vt 0.563083 0.018572
vt 0.563083 0.182914
vt 0.493501 0.182914
vt 0.012416 0.987435
vt 0.012416 0.823326
vt 0.101140 0.823326
vt 0.101140 0.987435
vt 0.012416 0.661249
vt 0.101140 0.661249
vt 0.188243 0.661249
vt 0.188243 0.823326
vt 0.188243 0.987435
vt 0.272101 0.661249
vt 0.272101 0.823326
vt 0.351175 0.661249
vt 0.351175 0.823326
vt 0.351175 0.987435
vt 0.272101 0.987435
vt 0.423920 0.661249
vt 0.423920 0.823326
vt 0.423920 0.987435
vt 0.188243 0.018572
vt 0.272101 0.018572
vt 0.272101 0.182914
vt 0.188243 0.182914
vt 0.351175 0.018572
vt 0.351175 0.182914
vt 0.351175 0.345165
vt 0.272101 0.345165
vt 0.188243 0.345165
vt 0.012416 0.018572
vt 0.101140 0.018572
vt 0.101140 0.182914
vt 0.012416 0.182914
vt 0.101140 0.345165
vt 0.012416 0.345165
vt 0.351175 0.503236
vt 0.423920 0.503236
vt 0.423920 0.345165
vt 0.272101 0.503236
vt 0.188243 0.503236
vt 0.101140 0.503236
vt 0.012416 0.503236
vt 0.423920 0.182914
vt 0.423920 0.018572
s 1
usemtl wire_000000000
f 9/1/1 47/2/2 29/3/3 50/4/4
f 47/2/2 4/5/5 48/6/6 29/3/3
f 3/7/7 49/8/8 29/3/3 48/6/6
f 49/8/8 2/9/9 50/4/4 29/3/3
f 9/1/1 50/4/4 30/10/10 53/11/11
f 50/4/4 2/9/9 51/12/12 30/10/10
f 1/13/13 52/14/14 30/10/10 51/12/12
f 52/14/14 8/15/15 53/11/11 30/10/10
f 8/15/15 52/14/14 31/16/16 56/17/17
f 52/14/14 1/13/13 54/18/18 31/16/16
f 13/19/19 55/20/20 31/16/16 54/18/18
f 55/20/20 20/21/21 56/17/17 31/16/16
f 5/22/22 60/23/23 32/24/24 58/25/25
f 60/23/23 10/26/26 61/27/27 32/24/24
f 11/28/28 62/29/29 32/24/24 61/27/27
f 62/29/29 6/30/30 58/25/25 32/24/24
f 7/31/31 63/32/32 33/33/33 57/34/34
f 63/32/32 12/35/35 64/36/36 33/33/33
f 10/26/26 60/23/23 33/33/33 64/36/36
f 60/23/23 5/22/22 57/34/34 33/33/33
f 28/37/37 65/38/38 34/39/39 67/40/40
f 65/38/38 11/28/28 66/41/41 34/39/39
f 8/15/15 56/17/17 34/39/39 66/41/41
f 56/17/17 20/21/21 67/40/40 34/39/39
f 10/26/26 68/42/42 35/43/43 61/27/27
f 68/42/42 9/1/1 53/11/11 35/43/43
f 8/15/15 66/41/41 35/43/43 53/11/11
f 66/41/41 11/28/28 61/27/27 35/43/43
f 12/35/35 69/44/44 36/45/45 64/36/36
f 69/44/44 4/5/5 47/2/2 36/45/45
f 9/1/1 68/42/42 36/45/45 47/2/2
f 68/42/42 10/26/26 64/36/36 36/45/45
f 24/46/46 59/47/47 37/48/48 70/49/49
f 59/47/47 6/30/30 62/29/29 37/48/48
f 11/28/28 65/38/38 37/48/48 62/29/29
f 65/38/38 28/37/37 70/49/49 37/48/48
f 17/50/50 71/51/51 38/52/52 74/53/53
f 71/51/51 16/54/54 72/55/55 38/52/52
f 15/56/56 73/57/57 38/52/52 72/55/55
f 73/57/57 14/58/58 74/53/53 38/52/52
f 15/56/56 75/59/59 39/60/60 73/57/57
f 75/59/59 19/61/61 76/62/62 39/60/60
f 18/63/63 77/64/64 39/60/60 76/62/62
f 77/64/64 14/58/58 73/57/57 39/60/60
f 19/61/61 78/65/65 40/66/66 76/62/62
f 78/65/65 20/21/21 55/20/20 40/66/66
f 13/19/19 79/67/67 40/66/66 55/20/20
f 79/67/67 18/63/63 76/62/62 40/66/66
f 22/68/68 81/69/69 41/70/70 85/71/71
f 81/69/69 23/72/72 83/73/73 41/70/70
f 26/74/74 84/75/75 41/70/70 83/73/73
f 84/75/75 25/76/76 85/71/71 41/70/70
f 21/77/77 80/78/78 42/79/79 87/80/80
f 80/78/78 22/68/68 85/71/71 42/79/79
f 25/76/76 86/81/81 42/79/79 85/71/71
f 86/81/81 27/82/82 87/80/80 42/79/79
f 19/61/61 88/83/83 43/84/84 78/65/65
f 88/83/83 26/74/74 89/85/85 43/84/84
f 28/37/37 67/40/40 43/84/84 89/85/85
f 67/40/40 20/21/21 78/65/65 43/84/84
f 25/76/76 84/75/75 44/86/86 90/87/87
f 84/75/75 26/74/74 88/83/83 44/86/86
f 19/61/61 75/59/59 44/86/86 88/83/83
f 75/59/59 15/56/56 90/87/87 44/86/86
f 27/82/82 86/81/81 45/88/88 91/89/89
f 86/81/81 25/76/76 90/87/87 45/88/88
f 15/56/56 72/55/55 45/88/88 90/87/87
f 72/55/55 16/54/54 91/89/89 45/88/88
f 24/46/46 70/49/49 46/90/90 82/91/91
f 70/49/49 28/37/37 89/85/85 46/90/90
f 26/74/74 83/73/73 46/90/90 89/85/85
f 83/73/73 23/72/72 82/91/91 46/90/90
